<!DOCTYPE html>
<html lang="en">
<head>
<link rel="shortcut icon" href="FYCLOGO.ico" /><body>
<body style="background-color:rgb(64, 64, 64);">
<meta charset="UTF-8">
<meta http-equiv="X-UA-Compatible" content="IE=edge">
<meta name="viewport" content="width=device-width, initial-scale=1.0">
<title>FYC/TVShows/South.Park.S25E04.1080p.WEB.h264-BAE</title>
</head>
<body>

<center><h1>FYC/TVShows/South.Park.S25E04.1080p.WEB.h264-BAE</h1></center>
<center><h1>The best way to get banned form your ISP</h1></center>
<center><h1>============================</h1></center>

<!--Back-->
<h1>
<style> 
.button {
background-color: rgb(36, 37, 36);
border: none;
color: rgb(0, 0, 0);
padding: 40px 68px;
text-align: center;
text-decoration: none;
display: inline-block;
font-size: 40px;
margin: 4px 2px;
cursor: pointer;
}
</style>
</head>
<body>
<center><a href="TVShows.html" class="button"><center>Back</center></a></center>
<h1>
<center><h1>============================</h1></center>
<!--End--> 

<!--Stats-->
<center><img src=""></center>
<center><h1>Stats</h1></center>
<center><h1>Title: South.Park.S25E04.1080p.WEB.h264-BAE</h1></center>
<center><h1>Category: TV</h1></center>
<center><h1>Type: HD</h1></center>
<center><h1>Language: English</h1></center>
<center><h1>Total size: 456.1 MB</h1></center>
<center><h1>Uploaded By: TheMorozko</h1></center>
<center><h1>============================</h1></center>
<center><h1>Info: 
<p>
Mediainfo
Video
ID : 2
Format : AVC
Format/Info : Advanced Video Codec
Format profile : High@L4
Format settings : CABAC / 4 Ref Frames
Format settings, CABAC : Yes
Format settings, Reference frames : 4 frames
Codec ID : V_MPEG4/ISO/AVC
Duration : 22 min 14 s
Bit rate : 2 737 kb/s
Width : 1 920 pixels
Height : 1 080 pixels
Display aspect ratio : 16:9
Frame rate mode : Constant
Frame rate : 23.976 (23976/1000) FPS
Color space : YUV
Chroma subsampling : 4:2:0
Bit depth : 8 bits
Scan type : Progressive
Bits/(Pixel*Frame) : 0.055
Stream size : 436 MiB (95%)
Language : English
Default : Yes
Forced : No

Audio
ID : 1
Format : AAC LC
Format/Info : Advanced Audio Codec Low Complexity
Codec ID : A_AAC-2
Duration : 22 min 14 s
Bit rate : 127 kb/s
Channel(s) : 2 channels
Channel layout : L R
Sampling rate : 48.0 kHz
Frame rate : 46.875 FPS (1024 SPF)
Compression mode : Lossy
Delay relative to video : -41 ms
Stream size : 20.2 MiB (4%)
Language : English
Default : Yes
Forced : No

Text
ID : 3
Format : UTF-8
Codec ID : S_TEXT/UTF8
Codec ID/Info : UTF-8 Plain Text
Duration : 22 min 3 s
Bit rate : 151 b/s
Count of elements : 434
Stream size : 24.5 KiB (0%)
Language : English
Default : No
Forced : No
</p></h1></center>
<center><h1>============================</h1></center>

<!--Download-->
<h1>
<style> 
.button {
background-color: rgb(36, 37, 36);
border: none;
color: rgb(0, 0, 0);
padding: 40px 68px;
text-align: center;
text-decoration: none;
display: inline-block;
font-size: 40px;
margin: 4px 2px;
cursor: pointer;
}
</style>
</head>
<body>
<center><a href="magnet:?xt=urn:btih:1B196DC2EAFC2B6B5247786EDD3094A49EB52C5E&dn=South.Park.S25E04.1080p.WEB.h264-BAE&tr=http%3A%2F%2Ftracker.trackerfix.com%3A80%2Fannounce&tr=udp%3A%2F%2F9.rarbg.me%3A2730%2Fannounce&tr=udp%3A%2F%2F9.rarbg.to%3A2930%2Fannounce&tr=udp%3A%2F%2Ftracker.fatkhoala.org%3A13760%2Fannounce&tr=udp%3A%2F%2Ftracker.tallpenguin.org%3A15800%2Fannounce&tr=udp%3A%2F%2Ftracker.opentrackr.org%3A1337%2Fannounce&tr=http%3A%2F%2Ftracker.openbittorrent.com%3A80%2Fannounce&tr=udp%3A%2F%2Fopentracker.i2p.rocks%3A6969%2Fannounce&tr=udp%3A%2F%2Ftracker.internetwarriors.net%3A1337%2Fannounce&tr=udp%3A%2F%2Ftracker.leechers-paradise.org%3A6969%2Fannounce&tr=udp%3A%2F%2Fcoppersurfer.tk%3A6969%2Fannounce&tr=udp%3A%2F%2Ftracker.zer0day.to%3A1337%2Fannounce" class="button"><center>Downlaod</center></a></center>
<h1>
<!--End--> 

</body>
</html>